PathFileType	4	(X/Y/Z)	/home/nbianco/projects/addbio/data/HamnerRunning2013/Processed/subject04//results/MarkerData/run400.trc
DataRate	CameraRate	NumFrames	NumMarkers	Units	OrigDataRate	OrigDataStartFrame	OrigNumFrames
100	100	9	42	m	100	0	209
Frame#	Time	C7			CLAV			LACR			LASI			LCAL			LFAradius			LFAsuperior			LFAulna			LLEL			LMEL			LMT5			LPSI			LTB1			LTB2			LTB3			LTH1			LTH2			LTH3			LTOE			LUA1			LUA2			LUA3			RACR			RASI			RCAL			RFAradius			RFAsuperior			RFAulna			RLEL			RMEL			RMT5			RPSI			RTB1			RTB2			RTB3			RTH1			RTH2			RTH3			RTOE			RUA1			RUA2			RUA3		
		X1	Y1	Z1	X2	Y2	Z2	X3	Y3	Z3	X4	Y4	Z4	X5	Y5	Z5	X6	Y6	Z6	X7	Y7	Z7	X8	Y8	Z8	X9	Y9	Z9	X10	Y10	Z10	X11	Y11	Z11	X12	Y12	Z12	X13	Y13	Z13	X14	Y14	Z14	X15	Y15	Z15	X16	Y16	Z16	X17	Y17	Z17	X18	Y18	Z18	X19	Y19	Z19	X20	Y20	Z20	X21	Y21	Z21	X22	Y22	Z22	X23	Y23	Z23	X24	Y24	Z24	X25	Y25	Z25	X26	Y26	Z26	X27	Y27	Z27	X28	Y28	Z28	X29	Y29	Z29	X30	Y30	Z30	X31	Y31	Z31	X32	Y32	Z32	X33	Y33	Z33	X34	Y34	Z34	X35	Y35	Z35	X36	Y36	Z36	X37	Y37	Z37	X38	Y38	Z38	X39	Y39	Z39	X40	Y40	Z40	X41	Y41	Z41	X42	Y42	Z42

1	0.65	1.10861	1.57009	-0.340628	1.19707	1.46504	-0.289276	1.20911	1.54787	-0.480513	1.15174	1.00332	-0.483458	0.451533	0.48566	-0.433553	1.28396	1.29902	-0.448527	1.20528	1.26598	-0.606896	1.29737	1.22878	-0.459681	1.13893	1.27962	-0.665337	1.06364	1.26787	-0.606655	0.402308	0.262459	-0.418306	0.981889	1.07068	-0.423251	0.722027	0.436946	-0.418706	0.657687	0.444626	-0.469123	0.583616	0.408533	-0.414045	1.04485	0.853383	-0.537888	1.04352	0.713422	-0.493938	0.925147	0.636928	-0.495564	0.405812	0.23712	-0.29416	1.19628	1.45493	-0.580141	1.11376	1.41843	-0.606963	1.15611	1.34966	-0.640147	1.12877	1.51914	-0.165055	1.12612	1.02503	-0.232209	1.28965	0.0968437	-0.321566	1.07886	1.26068	-0.149283	0.928591	1.32872	-0.100346	1.04122	1.20409	-0.128283	0.848685	1.36579	-0.101653	0.843649	1.37245	-0.197868	1.49877	0.17148	-0.257265	0.966052	1.07269	-0.329747	1.32464	0.418069	-0.283069	1.31131	0.303749	-0.246268	1.35764	0.24828	-0.312117	1.11686	0.860589	-0.172683	1.18801	0.778178	-0.188545	1.17411	0.638214	-0.204567	1.49689	0.212266	-0.328415	1.01038	1.44786	-0.102312	0.954566	1.47247	-0.137323	0.922126	1.41436	-0.103656
2	0.66	1.10931	1.56452	-0.338646	1.19809	1.45901	-0.288991	1.20863	1.54284	-0.480596	1.15255	0.998507	-0.482103	0.464886	0.507833	-0.430652	1.28095	1.27961	-0.451775	1.19637	1.25724	-0.609553	1.29068	1.20954	-0.465908	1.12964	1.27642	-0.665304	1.05642	1.26523	-0.605478	0.399333	0.288748	-0.424286	0.982501	1.06512	-0.422959	0.730944	0.436473	-0.420357	0.666775	0.45094	-0.469655	0.590653	0.419416	-0.415028	1.04854	0.848909	-0.538427	1.04974	0.708531	-0.497142	0.934644	0.628579	-0.497365	0.402131	0.259692	-0.302425	1.1907	1.45048	-0.580704	1.10728	1.415	-0.604921	1.14808	1.34585	-0.640491	1.13198	1.51233	-0.163393	1.12765	1.0209	-0.232819	1.27574	0.0881436	-0.31926	1.08881	1.24795	-0.146829	0.938646	1.31314	-0.0939561	1.05274	1.19082	-0.124359	0.85821	1.34862	-0.0930793	0.849943	1.35513	-0.188697	1.48718	0.15814	-0.257996	0.96693	1.06696	-0.328977	1.31742	0.407822	-0.283587	1.30252	0.293897	-0.245432	1.34657	0.237239	-0.311262	1.11689	0.852612	-0.172399	1.18683	0.768291	-0.185831	1.17222	0.63072	-0.204764	1.48504	0.199036	-0.329082	1.01649	1.43702	-0.0977971	0.958698	1.45941	-0.130684	0.929373	1.39976	-0.0969157
3	0.67	1.10984	1.55794	-0.336637	1.19903	1.45179	-0.288712	1.2081	1.53671	-0.48042	1.1533	0.993118	-0.481033	0.481217	0.527233	-0.426161	1.27667	1.25839	-0.455766	1.18644	1.24734	-0.611978	1.2826	1.18885	-0.473013	1.1193	1.27215	-0.664731	1.04841	1.26143	-0.603539	0.401532	0.312881	-0.431093	0.982934	1.05874	-0.422451	0.74196	0.43484	-0.422884	0.678309	0.455936	-0.470539	0.600809	0.428557	-0.416407	1.05176	0.843334	-0.538827	1.05639	0.702514	-0.500081	0.94437	0.619168	-0.499506	0.4033	0.277533	-0.311908	1.18417	1.4452	-0.581166	1.09998	1.41044	-0.602449	1.13907	1.34088	-0.640292	1.13477	1.50437	-0.161687	1.12935	1.01535	-0.233072	1.25506	0.0830346	-0.31803	1.09922	1.23362	-0.144149	0.949347	1.29588	-0.0870182	1.06484	1.17593	-0.120403	0.868532	1.32982	-0.0841342	0.856509	1.33605	-0.178954	1.4689	0.137344	-0.257855	0.967901	1.06033	-0.328307	1.30872	0.395756	-0.283911	1.28984	0.282294	-0.245207	1.33191	0.223949	-0.310878	1.11718	0.844889	-0.172172	1.18699	0.761138	-0.183505	1.17227	0.623216	-0.206791	1.46917	0.179207	-0.328495	1.02284	1.42456	-0.093228	0.963046	1.44472	-0.123451	0.937145	1.38345	-0.0899174
4	0.68	1.11017	1.55034	-0.33463	1.19996	1.44346	-0.288546	1.20739	1.52962	-0.480083	1.1539	0.987165	-0.480547	0.4999	0.543558	-0.420628	1.27102	1.23557	-0.4605	1.1756	1.23639	-0.614269	1.27311	1.16681	-0.481026	1.10802	1.26681	-0.663699	1.03978	1.25643	-0.600971	0.409077	0.334277	-0.43838	0.982821	1.05167	-0.421712	0.754865	0.43208	-0.426334	0.692096	0.459562	-0.471777	0.613805	0.435873	-0.418206	1.05438	0.836583	-0.53893	1.06357	0.695293	-0.502778	0.954306	0.608801	-0.501831	0.409135	0.290704	-0.321976	1.17671	1.439	-0.581407	1.09192	1.40475	-0.599595	1.1292	1.33469	-0.639461	1.13725	1.49522	-0.160021	1.13087	1.00828	-0.233059	1.22908	0.0821961	-0.318243	1.11009	1.21781	-0.14126	0.960751	1.27714	-0.0796317	1.0775	1.15946	-0.116571	0.879605	1.30959	-0.0748972	0.86344	1.3154	-0.168682	1.44489	0.111172	-0.257112	0.96863	1.05311	-0.327743	1.29954	0.383197	-0.283868	1.27438	0.270406	-0.245783	1.31476	0.210086	-0.311355	1.11751	0.83799	-0.172302	1.18761	0.756449	-0.182491	1.17313	0.615888	-0.2095	1.44996	0.154155	-0.327178	1.02946	1.41062	-0.0886268	0.967623	1.4285	-0.115758	0.945437	1.36564	-0.0826719
5	0.69	1.11021	1.54179	-0.332613	1.20102	1.43429	-0.28864	1.20617	1.52174	-0.480014	1.15411	0.980504	-0.480712	0.520279	0.556578	-0.415092	1.26401	1.21149	-0.466168	1.16385	1.2245	-0.616541	1.2622	1.1437	-0.490031	1.09592	1.26046	-0.66227	1.03057	1.25033	-0.597846	0.422084	0.352129	-0.445656	0.981687	1.04411	-0.420847	0.769506	0.42833	-0.430344	0.707941	0.461715	-0.473248	0.629294	0.441306	-0.420291	1.05632	0.828579	-0.538529	1.07119	0.687007	-0.505302	0.964664	0.597496	-0.504071	0.419281	0.299677	-0.332074	1.16842	1.43171	-0.581451	1.08318	1.3979	-0.596442	1.11861	1.32719	-0.637844	1.13971	1.48491	-0.158429	1.13142	0.999758	-0.232896	1.19976	0.0853478	-0.31989	1.12143	1.20074	-0.138139	0.972877	1.25704	-0.0719004	1.09065	1.14155	-0.11312	0.89137	1.28825	-0.065442	0.87108	1.29353	-0.158018	1.41676	0.085198	-0.256606	0.968551	1.04581	-0.327202	1.29123	0.372443	-0.283603	1.25831	0.260893	-0.247172	1.29626	0.198534	-0.312965	1.11727	0.832664	-0.172912	1.18733	0.753547	-0.183108	1.17395	0.609816	-0.211183	1.42753	0.127749	-0.326574	1.03631	1.39538	-0.0839786	0.972422	1.41082	-0.107781	0.954286	1.34647	-0.0752956
6	0.7	1.11002	1.53259	-0.330504	1.20223	1.42476	-0.289027	1.20416	1.51328	-0.480829	1.15356	0.972982	-0.481073	0.542147	0.566298	-0.410726	1.25577	1.18667	-0.473113	1.151	1.21184	-0.618744	1.24989	1.12002	-0.500118	1.08308	1.25333	-0.660394	1.02058	1.24346	-0.594044	0.44037	0.365685	-0.452464	0.979413	1.03626	-0.42021	0.786059	0.423858	-0.433953	0.725872	0.462161	-0.474699	0.647143	0.444819	-0.422315	1.05778	0.819461	-0.537638	1.07897	0.678329	-0.507662	0.975862	0.585353	-0.505881	0.433314	0.305307	-0.341929	1.15952	1.42325	-0.581466	1.07381	1.38998	-0.593136	1.10736	1.31837	-0.635351	1.14236	1.47377	-0.156706	1.13023	0.990409	-0.232427	1.16826	0.0907601	-0.322186	1.13331	1.18274	-0.134851	0.985677	1.23553	-0.0639154	1.10421	1.12247	-0.110271	0.903831	1.26598	-0.0558434	0.879961	1.2707	-0.147247	1.38566	0.0660004	-0.257119	0.967258	1.0387	-0.326833	1.28409	0.365168	-0.283825	1.24331	0.255791	-0.248995	1.27642	0.191444	-0.315421	1.11568	0.829127	-0.173451	1.18531	0.7517	-0.184062	1.17496	0.606263	-0.210914	1.40102	0.105034	-0.328033	1.04334	1.37875	-0.0793027	0.977507	1.39162	-0.0994987	0.963829	1.32574	-0.0681413
7	0.71	1.1099	1.52362	-0.328251	1.20345	1.41548	-0.289562	1.20149	1.50445	-0.48278	1.15192	0.964838	-0.481055	0.565476	0.572844	-0.408493	1.24637	1.16182	-0.481481	1.13695	1.19883	-0.620602	1.23623	1.09659	-0.5113	1.06951	1.24577	-0.657975	1.0098	1.23625	-0.589378	0.463479	0.374308	-0.458422	0.976386	1.02835	-0.420264	0.804975	0.419018	-0.436071	0.746131	0.460564	-0.475889	0.667477	0.446367	-0.423894	1.05911	0.809844	-0.536577	1.08683	0.670405	-0.50976	0.988318	0.572992	-0.507029	0.450999	0.308485	-0.350958	1.15044	1.41374	-0.581548	1.06403	1.38128	-0.589853	1.09554	1.30852	-0.632071	1.14511	1.46245	-0.154535	1.12731	0.981465	-0.231211	1.13472	0.096287	-0.324118	1.14595	1.16424	-0.131802	0.999263	1.21269	-0.0560158	1.11834	1.10278	-0.108089	0.917211	1.24286	-0.0463534	0.890439	1.2469	-0.13674	1.35191	0.0566107	-0.258549	0.964821	1.03174	-0.327212	1.27674	0.36115	-0.285327	1.22898	0.254862	-0.250729	1.25411	0.188661	-0.318104	1.11234	0.826713	-0.17302	1.18201	0.750214	-0.183736	1.17644	0.60513	-0.209164	1.36973	0.0893875	-0.331374	1.05072	1.36051	-0.07488	0.983226	1.37091	-0.0906972	0.974286	1.30327	-0.0617549
8	0.72	1.11032	1.51608	-0.325966	1.20444	1.40702	-0.290043	1.19868	1.4956	-0.485395	1.14915	0.956852	-0.480584	0.589904	0.576309	-0.408886	1.23568	1.13781	-0.490946	1.12208	1.1864	-0.621811	1.22124	1.07447	-0.523406	1.05535	1.23832	-0.655016	0.99858	1.22916	-0.583902	0.490792	0.377555	-0.463227	0.973243	1.02078	-0.421172	0.826637	0.414139	-0.436247	0.768961	0.45681	-0.476773	0.690427	0.445923	-0.424869	1.06069	0.800838	-0.535744	1.09519	0.664313	-0.511483	1.00238	0.561649	-0.507675	0.472502	0.309641	-0.357917	1.14177	1.40378	-0.581604	1.05425	1.37249	-0.586654	1.08332	1.29849	-0.628284	1.14766	1.45175	-0.151887	1.1236	0.974258	-0.229067	1.09911	0.100492	-0.325218	1.15966	1.14589	-0.129726	1.01418	1.18944	-0.0491069	1.13348	1.08336	-0.106497	0.932023	1.21915	-0.0375835	0.902368	1.22221	-0.126826	1.31575	0.0547234	-0.26001	0.96178	1.02502	-0.328791	1.2669	0.358366	-0.288251	1.21291	0.255665	-0.252085	1.22824	0.187889	-0.320528	1.10781	0.824229	-0.171315	1.17914	0.748115	-0.182265	1.17736	0.60449	-0.207332	1.33432	0.0808645	-0.334922	1.05889	1.34099	-0.0713713	0.990219	1.34942	-0.0814307	0.985867	1.27975	-0.0566142
9	0.73	1.11143	1.51072	-0.323915	1.20512	1.39976	-0.290383	1.19604	1.48733	-0.487809	1.1456	0.949995	-0.480247	0.614605	0.576684	-0.411795	1.22346	1.11578	-0.500838	1.10714	1.17588	-0.622354	1.20486	1.05487	-0.536029	1.04092	1.23182	-0.651711	0.987286	1.22272	-0.578099	0.521496	0.375365	-0.466711	0.970482	1.01427	-0.422503	0.851058	0.409448	-0.435028	0.794339	0.451348	-0.477535	0.715815	0.443547	-0.42542	1.06262	0.793616	-0.53531	1.10472	0.660498	-0.512818	1.01834	0.552595	-0.508385	0.498238	0.308526	-0.361537	1.13395	1.39442	-0.581444	1.04492	1.36474	-0.583334	1.07095	1.28973	-0.624346	1.1499	1.44234	-0.149231	1.12035	0.969414	-0.226587	1.06197	0.10302	-0.325712	1.17478	1.12889	-0.129278	1.03118	1.16782	-0.0445241	1.15013	1.06556	-0.105471	0.948786	1.19584	-0.030448	0.915136	1.19742	-0.117832	1.27802	0.0554829	-0.260757	0.958839	1.01915	-0.331099	1.25285	0.354312	-0.291871	1.19271	0.255347	-0.253152	1.19883	0.186481	-0.322519	1.10346	0.82076	-0.169133	1.17797	0.744148	-0.181499	1.17561	0.601873	-0.206737	1.29667	0.0770776	-0.337123	1.06838	1.32184	-0.0695375	0.999013	1.32878	-0.0725467	0.998603	1.25716	-0.0528954
